<mxfile host="app.diagrams.net" modified="2023-12-08T10:32:04.765Z" agent="Mozilla/5.0 (Windows NT 10.0; Win64; x64) AppleWebKit/537.36 (KHTML, like Gecko) Chrome/119.0.0.0 Safari/537.36" etag="CJxEC0RwJJhgbzzieKb8" version="22.0.0" type="device">
  <diagram name="Page-1" id="hchturiOVSbXOmkMWGx-">
    <mxGraphModel dx="880" dy="516" grid="1" gridSize="10" guides="1" tooltips="1" connect="1" arrows="1" fold="1" page="1" pageScale="1" pageWidth="850" pageHeight="1100" math="0" shadow="0">
      <root>
        <mxCell id="0" />
        <mxCell id="1" parent="0" />
        <mxCell id="UDG8ypHBQhFJTjgQ3_tU-5" value="" style="edgeStyle=orthogonalEdgeStyle;rounded=0;orthogonalLoop=1;jettySize=auto;html=1;" edge="1" parent="1" source="UDG8ypHBQhFJTjgQ3_tU-1" target="UDG8ypHBQhFJTjgQ3_tU-4">
          <mxGeometry relative="1" as="geometry" />
        </mxCell>
        <mxCell id="UDG8ypHBQhFJTjgQ3_tU-7" style="edgeStyle=orthogonalEdgeStyle;rounded=0;orthogonalLoop=1;jettySize=auto;html=1;exitX=1;exitY=0.5;exitDx=0;exitDy=0;entryX=0;entryY=0.5;entryDx=0;entryDy=0;" edge="1" parent="1" source="UDG8ypHBQhFJTjgQ3_tU-1" target="UDG8ypHBQhFJTjgQ3_tU-3">
          <mxGeometry relative="1" as="geometry" />
        </mxCell>
        <mxCell id="UDG8ypHBQhFJTjgQ3_tU-19" value="" style="edgeStyle=orthogonalEdgeStyle;rounded=0;orthogonalLoop=1;jettySize=auto;html=1;" edge="1" parent="1" source="UDG8ypHBQhFJTjgQ3_tU-1" target="UDG8ypHBQhFJTjgQ3_tU-18">
          <mxGeometry relative="1" as="geometry" />
        </mxCell>
        <mxCell id="UDG8ypHBQhFJTjgQ3_tU-1" value="Web Crawling" style="rounded=0;whiteSpace=wrap;html=1;" vertex="1" parent="1">
          <mxGeometry x="20" y="210" width="120" height="60" as="geometry" />
        </mxCell>
        <mxCell id="UDG8ypHBQhFJTjgQ3_tU-11" value="" style="edgeStyle=orthogonalEdgeStyle;rounded=0;orthogonalLoop=1;jettySize=auto;html=1;" edge="1" parent="1" source="UDG8ypHBQhFJTjgQ3_tU-3" target="UDG8ypHBQhFJTjgQ3_tU-10">
          <mxGeometry relative="1" as="geometry" />
        </mxCell>
        <mxCell id="UDG8ypHBQhFJTjgQ3_tU-13" value="" style="edgeStyle=orthogonalEdgeStyle;rounded=0;orthogonalLoop=1;jettySize=auto;html=1;" edge="1" parent="1" source="UDG8ypHBQhFJTjgQ3_tU-3" target="UDG8ypHBQhFJTjgQ3_tU-12">
          <mxGeometry relative="1" as="geometry" />
        </mxCell>
        <mxCell id="UDG8ypHBQhFJTjgQ3_tU-15" value="" style="edgeStyle=orthogonalEdgeStyle;rounded=0;orthogonalLoop=1;jettySize=auto;html=1;" edge="1" parent="1" source="UDG8ypHBQhFJTjgQ3_tU-3" target="UDG8ypHBQhFJTjgQ3_tU-14">
          <mxGeometry relative="1" as="geometry" />
        </mxCell>
        <mxCell id="UDG8ypHBQhFJTjgQ3_tU-3" value="Data Processing Pipeline" style="rounded=0;whiteSpace=wrap;html=1;" vertex="1" parent="1">
          <mxGeometry x="260" y="210" width="120" height="60" as="geometry" />
        </mxCell>
        <mxCell id="UDG8ypHBQhFJTjgQ3_tU-4" value="Dark Web" style="ellipse;whiteSpace=wrap;html=1;rounded=0;" vertex="1" parent="1">
          <mxGeometry x="40" y="390" width="80" height="80" as="geometry" />
        </mxCell>
        <mxCell id="UDG8ypHBQhFJTjgQ3_tU-6" value="Stem and&lt;br&gt;pysocks" style="text;html=1;align=center;verticalAlign=middle;resizable=0;points=[];autosize=1;strokeColor=none;fillColor=none;" vertex="1" parent="1">
          <mxGeometry x="80" y="310" width="70" height="40" as="geometry" />
        </mxCell>
        <mxCell id="UDG8ypHBQhFJTjgQ3_tU-8" value="Data Collection" style="text;html=1;align=center;verticalAlign=middle;resizable=0;points=[];autosize=1;strokeColor=none;fillColor=none;" vertex="1" parent="1">
          <mxGeometry x="150" y="210" width="100" height="30" as="geometry" />
        </mxCell>
        <mxCell id="UDG8ypHBQhFJTjgQ3_tU-10" value="Keyword-Based Filtering" style="rounded=0;whiteSpace=wrap;html=1;" vertex="1" parent="1">
          <mxGeometry x="460" y="210" width="120" height="60" as="geometry" />
        </mxCell>
        <mxCell id="UDG8ypHBQhFJTjgQ3_tU-22" value="" style="edgeStyle=orthogonalEdgeStyle;rounded=0;orthogonalLoop=1;jettySize=auto;html=1;" edge="1" parent="1" source="UDG8ypHBQhFJTjgQ3_tU-12" target="UDG8ypHBQhFJTjgQ3_tU-21">
          <mxGeometry relative="1" as="geometry" />
        </mxCell>
        <mxCell id="UDG8ypHBQhFJTjgQ3_tU-12" value="Seller Identification" style="rounded=0;whiteSpace=wrap;html=1;" vertex="1" parent="1">
          <mxGeometry x="260" y="70" width="120" height="60" as="geometry" />
        </mxCell>
        <mxCell id="UDG8ypHBQhFJTjgQ3_tU-17" value="" style="edgeStyle=orthogonalEdgeStyle;rounded=0;orthogonalLoop=1;jettySize=auto;html=1;" edge="1" parent="1" source="UDG8ypHBQhFJTjgQ3_tU-14" target="UDG8ypHBQhFJTjgQ3_tU-16">
          <mxGeometry relative="1" as="geometry" />
        </mxCell>
        <mxCell id="UDG8ypHBQhFJTjgQ3_tU-14" value="IP detail retrieval" style="rounded=0;whiteSpace=wrap;html=1;" vertex="1" parent="1">
          <mxGeometry x="260" y="350" width="120" height="60" as="geometry" />
        </mxCell>
        <mxCell id="UDG8ypHBQhFJTjgQ3_tU-16" value="Geolocation Identification" style="rounded=0;whiteSpace=wrap;html=1;" vertex="1" parent="1">
          <mxGeometry x="460" y="350" width="120" height="60" as="geometry" />
        </mxCell>
        <mxCell id="UDG8ypHBQhFJTjgQ3_tU-18" value="VPN connection" style="rounded=0;whiteSpace=wrap;html=1;" vertex="1" parent="1">
          <mxGeometry x="20" y="70" width="120" height="60" as="geometry" />
        </mxCell>
        <mxCell id="UDG8ypHBQhFJTjgQ3_tU-21" value="Filtering" style="rounded=0;whiteSpace=wrap;html=1;" vertex="1" parent="1">
          <mxGeometry x="460" y="70" width="120" height="60" as="geometry" />
        </mxCell>
      </root>
    </mxGraphModel>
  </diagram>
</mxfile>
